<mxfile host="app.diagrams.net" agent="Mozilla/5.0 (Windows NT 10.0; Win64; x64) AppleWebKit/537.36 (KHTML, like Gecko) Chrome/138.0.0.0 Safari/537.36 Edg/138.0.0.0" version="28.0.7">
  <diagram name="Page-1" id="ExH7z7kkyuM7ZMvNXsU6">
    <mxGraphModel dx="982" dy="2375" grid="1" gridSize="10" guides="1" tooltips="1" connect="1" arrows="1" fold="1" page="1" pageScale="1" pageWidth="850" pageHeight="1100" math="0" shadow="0">
      <root>
        <mxCell id="0" />
        <mxCell id="1" parent="0" />
        <mxCell id="5IkkdWnL_WB3vedL_181-1" value="lecture" style="swimlane;whiteSpace=wrap;html=1;startSize=23;" vertex="1" parent="1">
          <mxGeometry x="250" y="190" width="200" height="230" as="geometry" />
        </mxCell>
        <mxCell id="5IkkdWnL_WB3vedL_181-6" value="lecture name" style="rounded=0;whiteSpace=wrap;html=1;" vertex="1" parent="5IkkdWnL_WB3vedL_181-1">
          <mxGeometry y="30" width="200" height="30" as="geometry" />
        </mxCell>
        <mxCell id="5IkkdWnL_WB3vedL_181-7" value="lecture id" style="rounded=0;whiteSpace=wrap;html=1;" vertex="1" parent="5IkkdWnL_WB3vedL_181-1">
          <mxGeometry y="60" width="200" height="30" as="geometry" />
        </mxCell>
        <mxCell id="5IkkdWnL_WB3vedL_181-8" value="lecture email" style="rounded=0;whiteSpace=wrap;html=1;" vertex="1" parent="5IkkdWnL_WB3vedL_181-1">
          <mxGeometry y="90" width="200" height="30" as="geometry" />
        </mxCell>
        <mxCell id="5IkkdWnL_WB3vedL_181-9" value="lecture password" style="rounded=0;whiteSpace=wrap;html=1;" vertex="1" parent="5IkkdWnL_WB3vedL_181-1">
          <mxGeometry y="120" width="200" height="30" as="geometry" />
        </mxCell>
        <mxCell id="5IkkdWnL_WB3vedL_181-45" value="course name" style="rounded=0;whiteSpace=wrap;html=1;" vertex="1" parent="5IkkdWnL_WB3vedL_181-1">
          <mxGeometry y="150" width="200" height="30" as="geometry" />
        </mxCell>
        <mxCell id="5IkkdWnL_WB3vedL_181-68" value="department" style="rounded=0;whiteSpace=wrap;html=1;" vertex="1" parent="5IkkdWnL_WB3vedL_181-1">
          <mxGeometry y="180" width="200" height="30" as="geometry" />
        </mxCell>
        <mxCell id="5IkkdWnL_WB3vedL_181-2" value="student" style="swimlane;whiteSpace=wrap;html=1;" vertex="1" parent="1">
          <mxGeometry x="1060" width="200" height="490" as="geometry" />
        </mxCell>
        <mxCell id="5IkkdWnL_WB3vedL_181-25" value="student name&lt;span style=&quot;color: rgba(0, 0, 0, 0); font-family: monospace; font-size: 0px; text-align: start; text-wrap-mode: nowrap;&quot;&gt;%3CmxGraphModel%3E%3Croot%3E%3CmxCell%20id%3D%220%22%2F%3E%3CmxCell%20id%3D%221%22%20parent%3D%220%22%2F%3E%3CmxCell%20id%3D%222%22%20value%3D%22email%22%20style%3D%22rounded%3D0%3BwhiteSpace%3Dwrap%3Bhtml%3D1%3B%22%20vertex%3D%221%22%20parent%3D%221%22%3E%3CmxGeometry%20x%3D%22560%22%20y%3D%22730%22%20width%3D%22200%22%20height%3D%2230%22%20as%3D%22geometry%22%2F%3E%3C%2FmxCell%3E%3C%2Froot%3E%3C%2FmxGraphModel%3E&lt;/span&gt;" style="rounded=0;whiteSpace=wrap;html=1;" vertex="1" parent="5IkkdWnL_WB3vedL_181-2">
          <mxGeometry y="30" width="200" height="30" as="geometry" />
        </mxCell>
        <mxCell id="5IkkdWnL_WB3vedL_181-26" value="student id" style="rounded=0;whiteSpace=wrap;html=1;" vertex="1" parent="5IkkdWnL_WB3vedL_181-2">
          <mxGeometry y="60" width="200" height="30" as="geometry" />
        </mxCell>
        <mxCell id="5IkkdWnL_WB3vedL_181-27" value="semester" style="rounded=0;whiteSpace=wrap;html=1;" vertex="1" parent="5IkkdWnL_WB3vedL_181-2">
          <mxGeometry y="90" width="200" height="30" as="geometry" />
        </mxCell>
        <mxCell id="5IkkdWnL_WB3vedL_181-28" value="programme" style="rounded=0;whiteSpace=wrap;html=1;" vertex="1" parent="5IkkdWnL_WB3vedL_181-2">
          <mxGeometry y="120" width="200" height="30" as="geometry" />
        </mxCell>
        <mxCell id="5IkkdWnL_WB3vedL_181-29" value="email" style="rounded=0;whiteSpace=wrap;html=1;" vertex="1" parent="5IkkdWnL_WB3vedL_181-2">
          <mxGeometry y="150" width="200" height="30" as="geometry" />
        </mxCell>
        <mxCell id="5IkkdWnL_WB3vedL_181-30" value="status" style="rounded=0;whiteSpace=wrap;html=1;" vertex="1" parent="5IkkdWnL_WB3vedL_181-2">
          <mxGeometry y="180" width="200" height="30" as="geometry" />
        </mxCell>
        <mxCell id="5IkkdWnL_WB3vedL_181-54" value="admission year" style="rounded=0;whiteSpace=wrap;html=1;" vertex="1" parent="5IkkdWnL_WB3vedL_181-2">
          <mxGeometry y="210" width="200" height="30" as="geometry" />
        </mxCell>
        <mxCell id="5IkkdWnL_WB3vedL_181-55" value="degree level" style="rounded=0;whiteSpace=wrap;html=1;" vertex="1" parent="5IkkdWnL_WB3vedL_181-2">
          <mxGeometry y="240" width="200" height="30" as="geometry" />
        </mxCell>
        <mxCell id="5IkkdWnL_WB3vedL_181-56" value="department" style="rounded=0;whiteSpace=wrap;html=1;" vertex="1" parent="5IkkdWnL_WB3vedL_181-2">
          <mxGeometry y="270" width="200" height="30" as="geometry" />
        </mxCell>
        <mxCell id="5IkkdWnL_WB3vedL_181-57" value="currriculum plan" style="rounded=0;whiteSpace=wrap;html=1;" vertex="1" parent="5IkkdWnL_WB3vedL_181-2">
          <mxGeometry y="300" width="200" height="30" as="geometry" />
        </mxCell>
        <mxCell id="5IkkdWnL_WB3vedL_181-62" value="enrollment" style="rounded=0;whiteSpace=wrap;html=1;" vertex="1" parent="5IkkdWnL_WB3vedL_181-2">
          <mxGeometry y="330" width="200" height="30" as="geometry" />
        </mxCell>
        <mxCell id="5IkkdWnL_WB3vedL_181-3" value="course" style="swimlane;whiteSpace=wrap;html=1;" vertex="1" parent="1">
          <mxGeometry x="550" y="-160" width="200" height="270" as="geometry" />
        </mxCell>
        <mxCell id="5IkkdWnL_WB3vedL_181-10" value="course name" style="rounded=0;whiteSpace=wrap;html=1;" vertex="1" parent="5IkkdWnL_WB3vedL_181-3">
          <mxGeometry y="30" width="200" height="30" as="geometry" />
        </mxCell>
        <mxCell id="5IkkdWnL_WB3vedL_181-11" value="course id" style="rounded=0;whiteSpace=wrap;html=1;" vertex="1" parent="5IkkdWnL_WB3vedL_181-3">
          <mxGeometry y="60" width="200" height="30" as="geometry" />
        </mxCell>
        <mxCell id="5IkkdWnL_WB3vedL_181-12" value="classroom" style="rounded=0;whiteSpace=wrap;html=1;" vertex="1" parent="5IkkdWnL_WB3vedL_181-3">
          <mxGeometry y="90" width="200" height="30" as="geometry" />
        </mxCell>
        <mxCell id="5IkkdWnL_WB3vedL_181-13" value="start time" style="rounded=0;whiteSpace=wrap;html=1;" vertex="1" parent="5IkkdWnL_WB3vedL_181-3">
          <mxGeometry y="120" width="200" height="30" as="geometry" />
        </mxCell>
        <mxCell id="5IkkdWnL_WB3vedL_181-14" value="end time" style="rounded=0;whiteSpace=wrap;html=1;" vertex="1" parent="5IkkdWnL_WB3vedL_181-3">
          <mxGeometry y="150" width="200" height="30" as="geometry" />
        </mxCell>
        <mxCell id="5IkkdWnL_WB3vedL_181-15" value="grad" style="rounded=0;whiteSpace=wrap;html=1;" vertex="1" parent="5IkkdWnL_WB3vedL_181-3">
          <mxGeometry y="180" width="200" height="30" as="geometry" />
        </mxCell>
        <mxCell id="5IkkdWnL_WB3vedL_181-44" value="lecture id" style="rounded=0;whiteSpace=wrap;html=1;" vertex="1" parent="5IkkdWnL_WB3vedL_181-3">
          <mxGeometry y="210" width="200" height="30" as="geometry" />
        </mxCell>
        <mxCell id="5IkkdWnL_WB3vedL_181-5" value="enrollment" style="swimlane;whiteSpace=wrap;html=1;" vertex="1" parent="1">
          <mxGeometry x="550" y="195" width="200" height="305" as="geometry" />
        </mxCell>
        <mxCell id="5IkkdWnL_WB3vedL_181-21" value="course name" style="rounded=0;whiteSpace=wrap;html=1;" vertex="1" parent="5IkkdWnL_WB3vedL_181-5">
          <mxGeometry y="30" width="200" height="30" as="geometry" />
        </mxCell>
        <mxCell id="5IkkdWnL_WB3vedL_181-22" value="course id" style="rounded=0;whiteSpace=wrap;html=1;" vertex="1" parent="5IkkdWnL_WB3vedL_181-5">
          <mxGeometry y="60" width="200" height="30" as="geometry" />
        </mxCell>
        <mxCell id="5IkkdWnL_WB3vedL_181-23" value="student name" style="rounded=0;whiteSpace=wrap;html=1;" vertex="1" parent="5IkkdWnL_WB3vedL_181-5">
          <mxGeometry y="90" width="200" height="30" as="geometry" />
        </mxCell>
        <mxCell id="5IkkdWnL_WB3vedL_181-39" value="final exam grad" style="rounded=0;whiteSpace=wrap;html=1;" vertex="1" parent="5IkkdWnL_WB3vedL_181-5">
          <mxGeometry y="150" width="200" height="30" as="geometry" />
        </mxCell>
        <mxCell id="5IkkdWnL_WB3vedL_181-60" value="student attendence" style="rounded=0;whiteSpace=wrap;html=1;" vertex="1" parent="5IkkdWnL_WB3vedL_181-5">
          <mxGeometry y="210" width="200" height="30" as="geometry" />
        </mxCell>
        <mxCell id="5IkkdWnL_WB3vedL_181-50" value="student id" style="rounded=0;whiteSpace=wrap;html=1;" vertex="1" parent="5IkkdWnL_WB3vedL_181-5">
          <mxGeometry y="120" width="200" height="30" as="geometry" />
        </mxCell>
        <mxCell id="5IkkdWnL_WB3vedL_181-38" value="tutorial grad" style="rounded=0;whiteSpace=wrap;html=1;" vertex="1" parent="5IkkdWnL_WB3vedL_181-5">
          <mxGeometry y="180" width="200" height="30" as="geometry" />
        </mxCell>
        <mxCell id="5IkkdWnL_WB3vedL_181-70" value="status" style="rounded=0;whiteSpace=wrap;html=1;" vertex="1" parent="5IkkdWnL_WB3vedL_181-5">
          <mxGeometry y="240" width="200" height="30" as="geometry" />
        </mxCell>
        <mxCell id="5IkkdWnL_WB3vedL_181-71" value="lecture id" style="rounded=0;whiteSpace=wrap;html=1;" vertex="1" parent="5IkkdWnL_WB3vedL_181-5">
          <mxGeometry y="270" width="200" height="30" as="geometry" />
        </mxCell>
        <mxCell id="5IkkdWnL_WB3vedL_181-41" value="1 to many" style="endArrow=classic;html=1;rounded=0;exitX=1;exitY=0.5;exitDx=0;exitDy=0;edgeStyle=orthogonalEdgeStyle;entryX=0;entryY=0.25;entryDx=0;entryDy=0;" edge="1" parent="1" source="5IkkdWnL_WB3vedL_181-7" target="5IkkdWnL_WB3vedL_181-44">
          <mxGeometry width="50" height="50" relative="1" as="geometry">
            <mxPoint x="440" y="280" as="sourcePoint" />
            <mxPoint x="520" y="380" as="targetPoint" />
          </mxGeometry>
        </mxCell>
        <mxCell id="5IkkdWnL_WB3vedL_181-46" value="1 to many" style="endArrow=classic;html=1;rounded=0;entryX=1;entryY=0.5;entryDx=0;entryDy=0;exitX=1;exitY=0.5;exitDx=0;exitDy=0;edgeStyle=orthogonalEdgeStyle;" edge="1" parent="1" source="5IkkdWnL_WB3vedL_181-10" target="5IkkdWnL_WB3vedL_181-21">
          <mxGeometry width="50" height="50" relative="1" as="geometry">
            <mxPoint x="740" y="340" as="sourcePoint" />
            <mxPoint x="830" y="260" as="targetPoint" />
            <Array as="points">
              <mxPoint x="820" y="-115" />
              <mxPoint x="820" y="240" />
            </Array>
          </mxGeometry>
        </mxCell>
        <mxCell id="5IkkdWnL_WB3vedL_181-47" value="1 to 1" style="endArrow=classic;html=1;rounded=0;exitX=1;exitY=1;exitDx=0;exitDy=0;edgeStyle=orthogonalEdgeStyle;entryX=0.5;entryY=1;entryDx=0;entryDy=0;" edge="1" parent="1" source="5IkkdWnL_WB3vedL_181-1" target="5IkkdWnL_WB3vedL_181-2">
          <mxGeometry width="50" height="50" relative="1" as="geometry">
            <mxPoint x="350" y="430" as="sourcePoint" />
            <mxPoint x="1290" y="620" as="targetPoint" />
            <Array as="points">
              <mxPoint x="450" y="550" />
              <mxPoint x="1140" y="550" />
            </Array>
          </mxGeometry>
        </mxCell>
        <mxCell id="5IkkdWnL_WB3vedL_181-48" value="" style="endArrow=classic;html=1;rounded=0;exitX=0;exitY=1;exitDx=0;exitDy=0;entryX=1;entryY=0.5;entryDx=0;entryDy=0;edgeStyle=orthogonalEdgeStyle;" edge="1" parent="1" source="5IkkdWnL_WB3vedL_181-26" target="5IkkdWnL_WB3vedL_181-50">
          <mxGeometry width="50" height="50" relative="1" as="geometry">
            <mxPoint x="760" y="625" as="sourcePoint" />
            <mxPoint x="820" y="490" as="targetPoint" />
            <Array as="points">
              <mxPoint x="930" y="90" />
              <mxPoint x="930" y="330" />
            </Array>
          </mxGeometry>
        </mxCell>
        <mxCell id="5IkkdWnL_WB3vedL_181-51" value="1 to many" style="edgeLabel;html=1;align=center;verticalAlign=middle;resizable=0;points=[];" vertex="1" connectable="0" parent="5IkkdWnL_WB3vedL_181-48">
          <mxGeometry x="-0.0587" y="-1" relative="1" as="geometry">
            <mxPoint as="offset" />
          </mxGeometry>
        </mxCell>
        <mxCell id="5IkkdWnL_WB3vedL_181-52" value="many to many" style="endArrow=classic;html=1;rounded=0;exitX=1;exitY=0.25;exitDx=0;exitDy=0;entryX=0;entryY=0.25;entryDx=0;entryDy=0;edgeStyle=orthogonalEdgeStyle;" edge="1" parent="1" source="5IkkdWnL_WB3vedL_181-50" target="5IkkdWnL_WB3vedL_181-26">
          <mxGeometry width="50" height="50" relative="1" as="geometry">
            <mxPoint x="860" y="310" as="sourcePoint" />
            <mxPoint x="910" y="260" as="targetPoint" />
          </mxGeometry>
        </mxCell>
      </root>
    </mxGraphModel>
  </diagram>
</mxfile>
